<svg width="41" height="40" viewBox="0 0 41 40" fill="none" xmlns="http://www.w3.org/2000/svg">
<g clip-path="url(#clip0_2340_691)">
<path d="M20.5 13.75C20.5 12.4239 21.0268 11.1521 21.9645 10.2145C22.9021 9.27678 24.1739 8.75 25.5 8.75H36.75V31.25H25.5C24.1739 31.25 22.9021 31.7768 21.9645 32.7145C21.0268 33.6521 20.5 34.9239 20.5 36.25" stroke="#1E1E1E" stroke-width="2.5" stroke-linecap="round" stroke-linejoin="round"/>
<path d="M4.25 31.25H15.5C16.8261 31.25 18.0979 31.7768 19.0355 32.7145C19.9732 33.6521 20.5 34.9239 20.5 36.25V13.75C20.5 12.4239 19.9732 11.1521 19.0355 10.2145C18.0979 9.27678 16.8261 8.75 15.5 8.75H4.25V31.25Z" stroke="#1E1E1E" stroke-width="2.5" stroke-linecap="round" stroke-linejoin="round"/>
</g>
<defs>
<clipPath id="clip0_2340_691">
<rect width="40" height="40" fill="white" transform="translate(0.5)"/>
</clipPath>
</defs>
</svg>
