<svg width="40" height="40" viewBox="0 0 40 40" fill="none" xmlns="http://www.w3.org/2000/svg">
<g clip-path="url(#clip0_2340_711)">
<path d="M15 17.5H27.5" stroke="#1E1E1E" stroke-width="2.5" stroke-linecap="round" stroke-linejoin="round"/>
<path d="M15 22.5H27.5" stroke="#1E1E1E" stroke-width="2.5" stroke-linecap="round" stroke-linejoin="round"/>
<path d="M5 31.25C5.66304 31.25 6.29893 30.9866 6.76777 30.5178C7.23661 30.0489 7.5 29.413 7.5 28.75V10C7.5 9.66848 7.6317 9.35054 7.86612 9.11612C8.10054 8.8817 8.41848 8.75 8.75 8.75H33.75C34.0815 8.75 34.3995 8.8817 34.6339 9.11612C34.8683 9.35054 35 9.66848 35 10V28.75C35 29.413 34.7366 30.0489 34.2678 30.5178C33.7989 30.9866 33.163 31.25 32.5 31.25H5Z" stroke="#1E1E1E" stroke-width="2.5" stroke-linecap="round" stroke-linejoin="round"/>
<path d="M5 31.25C4.33696 31.25 3.70107 30.9866 3.23223 30.5178C2.76339 30.0489 2.5 29.413 2.5 28.75V13.75" stroke="#1E1E1E" stroke-width="2.5" stroke-linecap="round" stroke-linejoin="round"/>
</g>
<defs>
<clipPath id="clip0_2340_711">
<rect width="40" height="40" fill="white"/>
</clipPath>
</defs>
</svg>
